<svg width="32" height="32" viewBox="0 0 32 32" fill="none" xmlns="http://www.w3.org/2000/svg">
<path fill-rule="evenodd" clip-rule="evenodd" d="M20.4427 7.05074C19.8395 7.16295 19.334 7.43462 18.8744 7.89342C18.5178 8.2495 18.274 8.63568 18.1409 9.05525C17.9273 9.72852 17.9285 10.1484 18.1465 11.0456C18.1621 11.1097 17.8461 11.3165 15.7284 12.6282C14.3886 13.458 13.2798 14.142 13.2643 14.1481C13.2487 14.1543 13.1096 14.0531 12.9549 13.9232C12.6245 13.6459 12.142 13.3931 11.7385 13.2859C11.3548 13.1839 10.6657 13.1769 10.2998 13.2714C9.38806 13.5067 8.60753 14.1516 8.24656 14.9678C8.05766 15.395 8 15.6843 8 16.2051C8 16.7259 8.05766 17.0152 8.24656 17.4424C8.60048 18.2426 9.37018 18.8892 10.2478 19.1235C10.6639 19.2346 11.3223 19.2349 11.7385 19.1243C12.142 19.0171 12.6245 18.7643 12.9549 18.4869C13.1096 18.3571 13.2487 18.2559 13.2643 18.262C13.2798 18.2682 14.3886 18.9522 15.7284 19.782C17.8461 21.0937 18.1621 21.3005 18.1465 21.3646C17.9278 22.2646 17.9274 22.7087 18.1449 23.3626C18.2914 23.8029 18.5008 24.1359 18.8601 24.4997C19.347 24.9928 19.8738 25.2674 20.5403 25.3756C22.046 25.6199 23.5242 24.6365 23.9174 23.1289C24.0826 22.4951 23.9953 21.6821 23.6971 21.0783C23.1795 20.0301 22.1392 19.3905 20.9642 19.3979C20.1864 19.4029 19.5279 19.6614 18.9451 20.1907L18.7522 20.3659L17.4214 19.5397C16.6895 19.0853 15.5808 18.398 14.9576 18.0125C14.3345 17.627 13.8211 17.3087 13.8168 17.305C13.8125 17.3014 13.8398 17.1965 13.8775 17.0719C14.0414 16.5305 14.0414 15.8797 13.8775 15.3383C13.8398 15.2137 13.8125 15.1088 13.8168 15.1052C13.8211 15.1015 14.3345 14.7832 14.9576 14.3977C15.5808 14.0122 16.6895 13.3252 17.4214 12.871L18.7522 12.0453L18.976 12.2459C19.8909 13.0661 21.2169 13.2524 22.3134 12.7146C23.1044 12.3267 23.7112 11.5723 23.918 10.72C24.0238 10.2838 24.0235 9.68827 23.9174 9.28134C23.5143 7.73567 21.9969 6.76156 20.4427 7.05074ZM21.5062 8.16976C22.4938 8.45984 23.0845 9.45686 22.8523 10.4417C22.7705 10.7887 22.6014 11.0865 22.3347 11.3532C21.9287 11.7592 21.4279 11.951 20.8743 11.9126C20.3742 11.8778 19.9786 11.6972 19.6322 11.3453C18.8782 10.5796 18.9168 9.31382 19.7159 8.59529C19.9201 8.41179 20.1619 8.27701 20.4607 8.1803C20.7179 8.09703 21.2406 8.09178 21.5062 8.16976ZM11.6252 14.4003C12.1726 14.5966 12.6118 15.041 12.8046 15.5936C12.9205 15.9261 12.9203 16.4853 12.8041 16.8165C12.6106 17.3679 12.1691 17.8157 11.6292 18.0081C11.3288 18.1152 10.8383 18.1376 10.5336 18.0583C9.67382 17.8344 9.09492 17.0898 9.09492 16.2078C9.09492 15.339 9.6394 14.6139 10.4797 14.3637C10.7728 14.2764 11.3294 14.2942 11.6252 14.4003ZM21.4232 20.5394C22.1203 20.7038 22.6875 21.2695 22.8512 21.9636C23.0845 22.9536 22.4961 23.9497 21.5062 24.2404C21.2513 24.3153 20.7474 24.315 20.4942 24.2398C19.8294 24.0425 19.3492 23.5623 19.1519 22.8975C19.0785 22.6503 19.0772 22.1833 19.149 21.9075C19.3322 21.2041 19.9597 20.6301 20.6765 20.5101C20.8781 20.4763 21.2111 20.4894 21.4232 20.5394Z" fill="#828282"/>
</svg>
