<svg width="44" height="44" viewBox="0 0 44 44" fill="none" xmlns="http://www.w3.org/2000/svg">
<path d="M2.3509 25.1222V25.3222H2.37866V31.5023C2.37866 32.3491 3.06739 33.0377 3.91422 33.0377H4.65042V34.0887C4.65042 34.643 5.10106 35.0937 5.65531 35.0937H6.37719C6.93147 35.0937 7.38199 34.643 7.38199 34.0887V33.0377H36.7556V34.0887C36.7556 34.643 37.2062 35.0937 37.7605 35.0937H38.4823C39.0366 35.0937 39.4873 34.643 39.4873 34.0887V33.0377H40.2245C41.0713 33.0377 41.7598 32.3491 41.7598 31.5023V25.1291V24.5035V19.3042C41.7599 17.5673 40.3612 16.1514 38.6309 16.1238V12.1589C38.6309 10.3652 37.1715 8.90632 35.3772 8.90632H8.75946C6.96582 8.90632 5.50696 10.3653 5.50696 12.1589V16.3366C3.76431 16.3499 2.3509 17.7715 2.3509 19.5173V25.1222ZM6.52562 12.3589H6.52571V12.1589C6.52571 10.9274 7.52792 9.92516 8.75937 9.92516H35.3772C36.6095 9.92516 37.6122 10.9275 37.6122 12.1589V16.1234H37.3237C36.3801 16.1234 35.6126 16.8909 35.6126 17.8347V19.9196C32.8171 18.1587 29.7461 16.9791 26.47 16.4112C23.5461 15.9041 20.5839 15.9099 17.6657 16.428C14.3189 17.0209 11.1932 18.2497 8.36039 20.0824V18.0478C8.36039 17.1041 7.59288 16.3366 6.64918 16.3366H6.52562V12.3589ZM25.8742 17.3456V24.3031H18.264V17.3602C20.7888 16.9567 23.3448 16.9518 25.8742 17.3456ZM35.8127 25.3291H40.7413V31.5023C40.7413 31.7871 40.5093 32.019 40.2247 32.019H3.9143C3.6295 32.019 3.3975 31.7871 3.3975 31.5023V25.3222H8.16048H8.76951H35.3694H35.6127V25.3291H35.8127ZM40.7412 24.3035H36.6313V17.8347C36.6313 17.4529 36.9421 17.1421 37.3238 17.1421H38.5793C39.7713 17.1421 40.7412 18.1122 40.7412 19.3041V24.3035ZM26.8929 17.5281C30.0255 18.1503 32.9546 19.3611 35.6127 21.1342V24.3031H26.8929V17.5281ZM8.36048 21.307C11.0561 19.4582 14.0407 18.1957 17.2453 17.547V24.3031H8.36048V21.307ZM3.36974 19.5173C3.36974 18.3254 4.33972 17.3553 5.53173 17.3553H6.64926C7.03106 17.3553 7.34181 17.6662 7.34181 18.0478V24.3035H3.36974V19.5173ZM6.36333 33.0931V34.0748H5.66926V33.0931H6.36333ZM38.4687 33.0931V34.0748H37.7744V33.0931H38.4687Z" fill="#2E6FA9" stroke="#2E6FA9" stroke-width="0.4"/>
</svg>
