<svg width="40" height="40" viewBox="0 0 40 40" fill="none" xmlns="http://www.w3.org/2000/svg">
<path d="M20.4167 38.2142C20.0059 38.2142 19.6726 37.8816 19.6726 37.4701V31.5177C19.6726 31.1063 20.0059 30.7737 20.4167 30.7737C20.8274 30.7737 21.1607 31.1063 21.1607 31.5177V37.4701C21.1607 37.8816 20.8274 38.2142 20.4167 38.2142Z" fill="#2E6FA9"/>
<path d="M25.6251 3.9881H15.2084C14.7977 3.9881 14.4644 3.65551 14.4644 3.24405C14.4644 2.83259 14.7977 2.5 15.2084 2.5H25.6251C26.0358 2.5 26.3691 2.83259 26.3691 3.24405C26.3691 3.65551 26.0358 3.9881 25.6251 3.9881Z" fill="#2E6FA9"/>
<path d="M18.1846 15.8929H15.2084C14.7977 15.8929 14.4644 15.5603 14.4644 15.1488C14.4644 14.7374 14.7977 14.4048 15.2084 14.4048H18.1846C18.5953 14.4048 18.9286 14.7374 18.9286 15.1488C18.9286 15.5603 18.5953 15.8929 18.1846 15.8929Z" fill="#2E6FA9"/>
<path d="M18.1846 18.869H15.2084C14.7977 18.869 14.4644 18.5364 14.4644 18.1249C14.4644 17.7134 14.7977 17.3809 15.2084 17.3809H18.1846C18.5953 17.3809 18.9286 17.7134 18.9286 18.1249C18.9286 18.5364 18.5953 18.869 18.1846 18.869Z" fill="#2E6FA9"/>
<path d="M18.1846 21.8453H15.2084C14.7977 21.8453 14.4644 21.5127 14.4644 21.1012C14.4644 20.6898 14.7977 20.3572 15.2084 20.3572H18.1846C18.5953 20.3572 18.9286 20.6898 18.9286 21.1012C18.9286 21.5127 18.5953 21.8453 18.1846 21.8453Z" fill="#2E6FA9"/>
<path d="M30.0893 11.4285H10.744C10.3333 11.4285 10 11.0959 10 10.6845C10 10.273 10.3333 9.94043 10.744 9.94043H30.0893C30.5 9.94043 30.8333 10.273 30.8333 10.6845C30.8333 11.0959 30.5 11.4285 30.0893 11.4285Z" fill="#2E6FA9"/>
<path d="M18.9285 3.2439H17.4404V10.6844H18.9285V3.2439Z" fill="#2E6FA9"/>
<path d="M23.3929 3.24414H21.9048V10.6846H23.3929V3.24414Z" fill="#2E6FA9"/>
<path d="M20.4167 32.262C17.1347 32.262 14.4644 29.2582 14.4644 25.5655V10.6846H15.9525V25.5655C15.9525 28.4368 17.9547 30.7739 20.4167 30.7739C22.8788 30.7739 24.881 28.4368 24.881 25.5655V10.6846H26.3691V25.5655C26.3691 29.2582 23.6987 32.262 20.4167 32.262Z" fill="#2E6FA9"/>
</svg>
