<svg width="32" height="32" viewBox="0 0 32 32" fill="none" xmlns="http://www.w3.org/2000/svg">
<path d="M25.3333 28.5H23V26.1667C23 25.2384 22.6312 24.3482 21.9748 23.6918C21.3185 23.0354 20.4282 22.6667 19.5 22.6667H12.5C11.5717 22.6667 10.6815 23.0354 10.0251 23.6918C9.36871 24.3482 8.99996 25.2384 8.99996 26.1667V28.5H6.66663V26.1667C6.66663 24.6196 7.28121 23.1358 8.37517 22.0419C9.46913 20.9479 10.9529 20.3333 12.5 20.3333H19.5C21.0471 20.3333 22.5308 20.9479 23.6248 22.0419C24.7187 23.1358 25.3333 24.6196 25.3333 26.1667V28.5ZM16 18C15.0807 18 14.1705 17.8189 13.3212 17.4672C12.4719 17.1154 11.7002 16.5998 11.0502 15.9497C10.4002 15.2997 9.88459 14.5281 9.5328 13.6788C9.18102 12.8295 8.99996 11.9193 8.99996 11C8.99996 10.0807 9.18102 9.1705 9.5328 8.32122C9.88459 7.47194 10.4002 6.70026 11.0502 6.05025C11.7002 5.40024 12.4719 4.88463 13.3212 4.53284C14.1705 4.18106 15.0807 4 16 4C17.8565 4 19.637 4.7375 20.9497 6.05025C22.2625 7.36301 23 9.14349 23 11C23 12.8565 22.2625 14.637 20.9497 15.9497C19.637 17.2625 17.8565 18 16 18ZM16 15.6667C17.2376 15.6667 18.4246 15.175 19.2998 14.2998C20.175 13.4247 20.6666 12.2377 20.6666 11C20.6666 9.76232 20.175 8.57534 19.2998 7.70017C18.4246 6.825 17.2376 6.33333 16 6.33333C14.7623 6.33333 13.5753 6.825 12.7001 7.70017C11.825 8.57534 11.3333 9.76232 11.3333 11C11.3333 12.2377 11.825 13.4247 12.7001 14.2998C13.5753 15.175 14.7623 15.6667 16 15.6667Z" fill="#2E6FA9"/>
</svg>
