<svg width="44" height="44" viewBox="0 0 44 44" fill="none" xmlns="http://www.w3.org/2000/svg">
<mask id="path-1-outside-1_1_3964" maskUnits="userSpaceOnUse" x="3.40015" y="3.40015" width="37" height="37" fill="black">
<rect fill="white" x="3.40015" y="3.40015" width="37" height="37"/>
<path fill-rule="evenodd" clip-rule="evenodd" d="M19.1263 4.61919C16.9705 5.16762 15.3127 6.09871 13.4743 7.79323C12.9475 8.279 12.0769 8.99222 11.5399 9.37815C10.1154 10.4016 8.03067 12.6735 7.01064 14.3138C5.0363 17.4884 4.27491 20.4346 4.41669 24.3506C4.49524 26.5221 4.5897 27.1006 5.12232 28.6776C5.46067 29.6789 5.9613 30.8861 6.2347 31.3604C7.03957 32.7558 8.55678 34.5708 9.69119 35.495C10.6944 36.3123 10.7654 36.3393 11.1051 36.0319C11.3017 35.8539 11.4626 35.6552 11.4626 35.5904C11.4626 35.5257 11.0233 35.1294 10.4865 34.7099C9.23252 33.7302 7.60132 31.6591 6.86005 30.1054C5.90191 28.0974 5.49401 26.1952 5.48558 23.6954C5.47102 19.3199 6.96485 15.4748 9.87474 12.3989L10.8806 11.3358L10.4784 12.4855C9.99371 13.8709 9.77894 17.3905 10.0903 18.8428C10.4123 20.3451 11.0243 21.8262 11.8521 23.1072L12.6122 24.2832V31.9417V39.6001H13.187H13.7617L13.7644 31.7915C13.7658 27.4969 13.819 23.789 13.8824 23.5517C13.998 23.121 14.0012 23.1206 18.2865 23.1206H22.5749V22.5457V21.9708L18.5994 21.9653L14.6239 21.9595L15.2496 21.3904L15.8754 20.8211H19.1447H22.4142L23.5005 21.5274C24.0979 21.9158 25.4084 23.0585 26.4129 24.0664C27.8337 25.4921 28.3956 26.2182 28.9434 27.3363C30.0623 29.6197 30.2324 30.6864 30.2357 35.4323L30.2386 39.6001H30.8133H31.3881L31.3848 35.5282C31.3812 31.1465 31.2103 29.8389 30.3717 27.7749C29.3274 25.2039 27.1641 22.7201 24.2387 20.7326L22.5749 19.6022V18.5829C22.5749 17.8046 22.5069 17.5635 22.2875 17.5635C22.0639 17.5635 22.0001 17.3081 22.0001 16.4138V15.264H19.2221H16.444V16.4138C16.444 17.3081 16.3802 17.5635 16.1566 17.5635C15.9359 17.5635 15.8692 17.8084 15.8692 18.6174C15.8692 19.1971 15.7951 19.6714 15.7047 19.6714C15.346 19.6714 13.7228 21.2959 13.3487 22.0293L12.9517 22.8077L12.4934 22.0538C10.9086 19.4479 10.5246 15.9857 11.496 13.0604C12.7051 9.41896 15.8499 6.51856 19.5095 5.66967C23.1612 4.8227 27.0756 5.95979 29.764 8.64864C33.5418 12.4271 34.1072 18.0184 31.1708 22.5622C30.4409 23.6918 30.4133 23.784 30.7348 24.0193C30.9237 24.1573 31.1498 24.2703 31.2373 24.2703C31.5025 24.2703 32.8819 22.0013 33.3061 20.8675C33.9669 19.1009 34.1213 17.9962 34.0202 15.7584C33.9529 14.272 33.801 13.2919 33.5136 12.4901L33.1032 11.3448L33.8895 12.1069C35.8158 13.9731 37.655 17.4959 38.2892 20.5337C38.6609 22.3133 38.5758 25.6283 38.1133 27.393C37.3677 30.2382 35.5866 33.1089 33.6131 34.6467L32.726 35.3379L33.0891 35.7863L33.4521 36.2347L34.5133 35.3279C36.4938 33.6357 37.9551 31.4088 38.878 28.6776C39.4106 27.1006 39.505 26.5221 39.5836 24.3506C39.7254 20.4346 38.964 17.4884 36.9897 14.3138C35.9692 12.6731 33.8843 10.401 32.4604 9.37853C31.9234 8.99279 31.0097 8.23818 30.4301 7.70183C27.9582 5.41404 25.7247 4.50058 22.3833 4.41051C20.9387 4.37142 19.8172 4.44328 19.1263 4.61919ZM20.8972 7.50216C20.554 7.65124 20.0982 8.06994 19.8842 8.43268C19.4903 9.10048 18.8067 9.36588 17.5936 9.322C17.3301 9.31242 16.7389 9.29 16.2794 9.27199C15.5594 9.24382 15.368 9.32468 14.8904 9.85931C14.4783 10.3209 14.3365 10.6726 14.3365 11.2344C14.3365 11.7227 14.1681 12.2375 13.8602 12.6913C12.9067 14.0967 12.8655 15.1491 13.7278 16.0784C14.3145 16.711 14.4492 16.7278 14.7293 16.2041C14.9055 15.8749 14.8722 15.7262 14.5446 15.3773C14.3248 15.1433 14.1449 14.8463 14.1449 14.7171C14.1449 14.2548 14.9251 12.9644 15.388 12.661C15.8401 12.3646 15.8474 12.3286 15.5646 11.7813C15.2979 11.2656 15.2987 11.1662 15.5738 10.7463C15.9192 10.219 16.6534 10.1289 17.0188 10.5693C17.3416 10.9583 17.7158 10.9309 18.4733 10.4625C19.2008 10.0128 19.6702 10.1473 20.2009 10.9577C20.3707 11.2166 20.5759 11.3871 20.6571 11.3369C20.9087 11.1815 21.0163 10.2083 20.8222 9.84551C20.5768 9.38696 20.7822 8.79887 21.2811 8.53194C21.6032 8.35948 21.8189 8.38726 22.341 8.66838C22.9631 9.00352 23.0252 9.00486 23.5676 8.69348C24.6782 8.05595 25.4488 8.41313 25.4488 9.56536C25.4488 9.96585 25.5216 10.0132 26.0239 9.93941C26.3713 9.88844 26.7976 9.98521 27.1005 10.1835C27.5446 10.4746 27.5896 10.6028 27.4954 11.3072C27.4369 11.7445 27.3302 12.2977 27.258 12.5365C27.1503 12.8931 27.3019 13.1294 28.1079 13.8608C28.967 14.6401 29.089 14.8434 29.089 15.4948C29.089 16.1101 28.9426 16.395 28.2422 17.144C27.5703 17.8624 27.4339 18.1179 27.5812 18.3814C27.8579 18.8759 28.1851 18.7897 28.9867 18.0111C30.6823 16.3641 30.6493 14.2904 28.907 13.0019C28.4221 12.6434 28.3518 12.5016 28.5116 12.2031C28.6185 12.0034 28.7058 11.496 28.7058 11.0755C28.7058 10.1575 28.0399 9.26241 27.1049 8.92438C26.7616 8.80021 26.3383 8.4505 26.1642 8.14716C25.6626 7.27279 24.4866 6.97041 23.5302 7.46958C23.1378 7.67443 22.9424 7.67577 22.4764 7.47706C21.7557 7.16969 21.6582 7.17123 20.8972 7.50216ZM20.8506 16.9886V17.5635H19.2221H17.5936V16.9886V16.4138H19.2221H20.8506V16.9886ZM21.4254 19.1923V19.6714H19.2221H17.0188V19.1923V18.7132H19.2221H21.4254V19.1923ZM18.0185 26.6861C16.2995 27.5628 15.9539 29.7076 17.3125 31.0666C19.3713 33.1258 22.669 31.0911 21.8271 28.281C21.383 26.7982 19.4148 25.974 18.0185 26.6861ZM20.3802 27.9983C21.3986 29.0166 20.6854 30.7855 19.2569 30.7855C18.3852 30.7855 17.5936 30.0104 17.5936 29.1567C17.5936 27.745 19.3834 27.0011 20.3802 27.9983ZM25.1875 29.1828L24.6824 29.6881V33.4517C24.6824 37.6469 24.7407 37.8709 25.9668 38.3833C26.9382 38.7892 28.1583 38.3661 28.6263 37.4607C28.9928 36.7521 28.9854 33.0091 28.6137 31.0419C28.2671 29.2079 27.7969 28.6776 26.5181 28.6776C25.8816 28.6776 25.577 28.7934 25.1875 29.1828ZM27.49 30.9026C27.6117 31.4178 27.7193 32.9757 27.7295 34.3648C27.7444 36.4223 27.6921 36.9458 27.4469 37.1913C27.0367 37.6013 26.4838 37.5693 26.0236 37.109C25.6705 36.7559 25.6404 36.4704 25.6404 33.4791C25.6404 30.3906 25.6601 30.2185 26.0456 29.9485C26.7169 29.4782 27.2346 29.8203 27.49 30.9026ZM17.5936 33.6598V34.2347H19.2221H20.8506V33.6598V33.085H19.2221H17.5936V33.6598ZM16.444 35.755C16.444 36.283 16.5036 36.3426 17.0314 36.3426C17.5595 36.3426 17.6129 36.2891 17.5583 35.8156C17.5108 35.4017 17.3847 35.2756 16.9709 35.2281C16.4975 35.1735 16.444 35.2269 16.444 35.755ZM18.5515 35.7677C18.5515 36.2787 18.6153 36.3426 19.1263 36.3426C19.6373 36.3426 19.7011 36.2787 19.7011 35.7677C19.7011 35.2566 19.6373 35.1928 19.1263 35.1928C18.6153 35.1928 18.5515 35.2566 18.5515 35.7677ZM20.8506 35.755C20.8506 36.283 20.9102 36.3426 21.438 36.3426C21.966 36.3426 22.0195 36.2891 21.9649 35.8156C21.9174 35.4017 21.7913 35.2756 21.3775 35.2281C20.9041 35.1735 20.8506 35.2269 20.8506 35.755Z"/>
</mask>
<path fill-rule="evenodd" clip-rule="evenodd" d="M19.1263 4.61919C16.9705 5.16762 15.3127 6.09871 13.4743 7.79323C12.9475 8.279 12.0769 8.99222 11.5399 9.37815C10.1154 10.4016 8.03067 12.6735 7.01064 14.3138C5.0363 17.4884 4.27491 20.4346 4.41669 24.3506C4.49524 26.5221 4.5897 27.1006 5.12232 28.6776C5.46067 29.6789 5.9613 30.8861 6.2347 31.3604C7.03957 32.7558 8.55678 34.5708 9.69119 35.495C10.6944 36.3123 10.7654 36.3393 11.1051 36.0319C11.3017 35.8539 11.4626 35.6552 11.4626 35.5904C11.4626 35.5257 11.0233 35.1294 10.4865 34.7099C9.23252 33.7302 7.60132 31.6591 6.86005 30.1054C5.90191 28.0974 5.49401 26.1952 5.48558 23.6954C5.47102 19.3199 6.96485 15.4748 9.87474 12.3989L10.8806 11.3358L10.4784 12.4855C9.99371 13.8709 9.77894 17.3905 10.0903 18.8428C10.4123 20.3451 11.0243 21.8262 11.8521 23.1072L12.6122 24.2832V31.9417V39.6001H13.187H13.7617L13.7644 31.7915C13.7658 27.4969 13.819 23.789 13.8824 23.5517C13.998 23.121 14.0012 23.1206 18.2865 23.1206H22.5749V22.5457V21.9708L18.5994 21.9653L14.6239 21.9595L15.2496 21.3904L15.8754 20.8211H19.1447H22.4142L23.5005 21.5274C24.0979 21.9158 25.4084 23.0585 26.4129 24.0664C27.8337 25.4921 28.3956 26.2182 28.9434 27.3363C30.0623 29.6197 30.2324 30.6864 30.2357 35.4323L30.2386 39.6001H30.8133H31.3881L31.3848 35.5282C31.3812 31.1465 31.2103 29.8389 30.3717 27.7749C29.3274 25.2039 27.1641 22.7201 24.2387 20.7326L22.5749 19.6022V18.5829C22.5749 17.8046 22.5069 17.5635 22.2875 17.5635C22.0639 17.5635 22.0001 17.3081 22.0001 16.4138V15.264H19.2221H16.444V16.4138C16.444 17.3081 16.3802 17.5635 16.1566 17.5635C15.9359 17.5635 15.8692 17.8084 15.8692 18.6174C15.8692 19.1971 15.7951 19.6714 15.7047 19.6714C15.346 19.6714 13.7228 21.2959 13.3487 22.0293L12.9517 22.8077L12.4934 22.0538C10.9086 19.4479 10.5246 15.9857 11.496 13.0604C12.7051 9.41896 15.8499 6.51856 19.5095 5.66967C23.1612 4.8227 27.0756 5.95979 29.764 8.64864C33.5418 12.4271 34.1072 18.0184 31.1708 22.5622C30.4409 23.6918 30.4133 23.784 30.7348 24.0193C30.9237 24.1573 31.1498 24.2703 31.2373 24.2703C31.5025 24.2703 32.8819 22.0013 33.3061 20.8675C33.9669 19.1009 34.1213 17.9962 34.0202 15.7584C33.9529 14.272 33.801 13.2919 33.5136 12.4901L33.1032 11.3448L33.8895 12.1069C35.8158 13.9731 37.655 17.4959 38.2892 20.5337C38.6609 22.3133 38.5758 25.6283 38.1133 27.393C37.3677 30.2382 35.5866 33.1089 33.6131 34.6467L32.726 35.3379L33.0891 35.7863L33.4521 36.2347L34.5133 35.3279C36.4938 33.6357 37.9551 31.4088 38.878 28.6776C39.4106 27.1006 39.505 26.5221 39.5836 24.3506C39.7254 20.4346 38.964 17.4884 36.9897 14.3138C35.9692 12.6731 33.8843 10.401 32.4604 9.37853C31.9234 8.99279 31.0097 8.23818 30.4301 7.70183C27.9582 5.41404 25.7247 4.50058 22.3833 4.41051C20.9387 4.37142 19.8172 4.44328 19.1263 4.61919ZM20.8972 7.50216C20.554 7.65124 20.0982 8.06994 19.8842 8.43268C19.4903 9.10048 18.8067 9.36588 17.5936 9.322C17.3301 9.31242 16.7389 9.29 16.2794 9.27199C15.5594 9.24382 15.368 9.32468 14.8904 9.85931C14.4783 10.3209 14.3365 10.6726 14.3365 11.2344C14.3365 11.7227 14.1681 12.2375 13.8602 12.6913C12.9067 14.0967 12.8655 15.1491 13.7278 16.0784C14.3145 16.711 14.4492 16.7278 14.7293 16.2041C14.9055 15.8749 14.8722 15.7262 14.5446 15.3773C14.3248 15.1433 14.1449 14.8463 14.1449 14.7171C14.1449 14.2548 14.9251 12.9644 15.388 12.661C15.8401 12.3646 15.8474 12.3286 15.5646 11.7813C15.2979 11.2656 15.2987 11.1662 15.5738 10.7463C15.9192 10.219 16.6534 10.1289 17.0188 10.5693C17.3416 10.9583 17.7158 10.9309 18.4733 10.4625C19.2008 10.0128 19.6702 10.1473 20.2009 10.9577C20.3707 11.2166 20.5759 11.3871 20.6571 11.3369C20.9087 11.1815 21.0163 10.2083 20.8222 9.84551C20.5768 9.38696 20.7822 8.79887 21.2811 8.53194C21.6032 8.35948 21.8189 8.38726 22.341 8.66838C22.9631 9.00352 23.0252 9.00486 23.5676 8.69348C24.6782 8.05595 25.4488 8.41313 25.4488 9.56536C25.4488 9.96585 25.5216 10.0132 26.0239 9.93941C26.3713 9.88844 26.7976 9.98521 27.1005 10.1835C27.5446 10.4746 27.5896 10.6028 27.4954 11.3072C27.4369 11.7445 27.3302 12.2977 27.258 12.5365C27.1503 12.8931 27.3019 13.1294 28.1079 13.8608C28.967 14.6401 29.089 14.8434 29.089 15.4948C29.089 16.1101 28.9426 16.395 28.2422 17.144C27.5703 17.8624 27.4339 18.1179 27.5812 18.3814C27.8579 18.8759 28.1851 18.7897 28.9867 18.0111C30.6823 16.3641 30.6493 14.2904 28.907 13.0019C28.4221 12.6434 28.3518 12.5016 28.5116 12.2031C28.6185 12.0034 28.7058 11.496 28.7058 11.0755C28.7058 10.1575 28.0399 9.26241 27.1049 8.92438C26.7616 8.80021 26.3383 8.4505 26.1642 8.14716C25.6626 7.27279 24.4866 6.97041 23.5302 7.46958C23.1378 7.67443 22.9424 7.67577 22.4764 7.47706C21.7557 7.16969 21.6582 7.17123 20.8972 7.50216ZM20.8506 16.9886V17.5635H19.2221H17.5936V16.9886V16.4138H19.2221H20.8506V16.9886ZM21.4254 19.1923V19.6714H19.2221H17.0188V19.1923V18.7132H19.2221H21.4254V19.1923ZM18.0185 26.6861C16.2995 27.5628 15.9539 29.7076 17.3125 31.0666C19.3713 33.1258 22.669 31.0911 21.8271 28.281C21.383 26.7982 19.4148 25.974 18.0185 26.6861ZM20.3802 27.9983C21.3986 29.0166 20.6854 30.7855 19.2569 30.7855C18.3852 30.7855 17.5936 30.0104 17.5936 29.1567C17.5936 27.745 19.3834 27.0011 20.3802 27.9983ZM25.1875 29.1828L24.6824 29.6881V33.4517C24.6824 37.6469 24.7407 37.8709 25.9668 38.3833C26.9382 38.7892 28.1583 38.3661 28.6263 37.4607C28.9928 36.7521 28.9854 33.0091 28.6137 31.0419C28.2671 29.2079 27.7969 28.6776 26.5181 28.6776C25.8816 28.6776 25.577 28.7934 25.1875 29.1828ZM27.49 30.9026C27.6117 31.4178 27.7193 32.9757 27.7295 34.3648C27.7444 36.4223 27.6921 36.9458 27.4469 37.1913C27.0367 37.6013 26.4838 37.5693 26.0236 37.109C25.6705 36.7559 25.6404 36.4704 25.6404 33.4791C25.6404 30.3906 25.6601 30.2185 26.0456 29.9485C26.7169 29.4782 27.2346 29.8203 27.49 30.9026ZM17.5936 33.6598V34.2347H19.2221H20.8506V33.6598V33.085H19.2221H17.5936V33.6598ZM16.444 35.755C16.444 36.283 16.5036 36.3426 17.0314 36.3426C17.5595 36.3426 17.6129 36.2891 17.5583 35.8156C17.5108 35.4017 17.3847 35.2756 16.9709 35.2281C16.4975 35.1735 16.444 35.2269 16.444 35.755ZM18.5515 35.7677C18.5515 36.2787 18.6153 36.3426 19.1263 36.3426C19.6373 36.3426 19.7011 36.2787 19.7011 35.7677C19.7011 35.2566 19.6373 35.1928 19.1263 35.1928C18.6153 35.1928 18.5515 35.2566 18.5515 35.7677ZM20.8506 35.755C20.8506 36.283 20.9102 36.3426 21.438 36.3426C21.966 36.3426 22.0195 36.2891 21.9649 35.8156C21.9174 35.4017 21.7913 35.2756 21.3775 35.2281C20.9041 35.1735 20.8506 35.2269 20.8506 35.755Z" fill="#2E6FA9"/>
<path fill-rule="evenodd" clip-rule="evenodd" d="M19.1263 4.61919C16.9705 5.16762 15.3127 6.09871 13.4743 7.79323C12.9475 8.279 12.0769 8.99222 11.5399 9.37815C10.1154 10.4016 8.03067 12.6735 7.01064 14.3138C5.0363 17.4884 4.27491 20.4346 4.41669 24.3506C4.49524 26.5221 4.5897 27.1006 5.12232 28.6776C5.46067 29.6789 5.9613 30.8861 6.2347 31.3604C7.03957 32.7558 8.55678 34.5708 9.69119 35.495C10.6944 36.3123 10.7654 36.3393 11.1051 36.0319C11.3017 35.8539 11.4626 35.6552 11.4626 35.5904C11.4626 35.5257 11.0233 35.1294 10.4865 34.7099C9.23252 33.7302 7.60132 31.6591 6.86005 30.1054C5.90191 28.0974 5.49401 26.1952 5.48558 23.6954C5.47102 19.3199 6.96485 15.4748 9.87474 12.3989L10.8806 11.3358L10.4784 12.4855C9.99371 13.8709 9.77894 17.3905 10.0903 18.8428C10.4123 20.3451 11.0243 21.8262 11.8521 23.1072L12.6122 24.2832V31.9417V39.6001H13.187H13.7617L13.7644 31.7915C13.7658 27.4969 13.819 23.789 13.8824 23.5517C13.998 23.121 14.0012 23.1206 18.2865 23.1206H22.5749V22.5457V21.9708L18.5994 21.9653L14.6239 21.9595L15.2496 21.3904L15.8754 20.8211H19.1447H22.4142L23.5005 21.5274C24.0979 21.9158 25.4084 23.0585 26.4129 24.0664C27.8337 25.4921 28.3956 26.2182 28.9434 27.3363C30.0623 29.6197 30.2324 30.6864 30.2357 35.4323L30.2386 39.6001H30.8133H31.3881L31.3848 35.5282C31.3812 31.1465 31.2103 29.8389 30.3717 27.7749C29.3274 25.2039 27.1641 22.7201 24.2387 20.7326L22.5749 19.6022V18.5829C22.5749 17.8046 22.5069 17.5635 22.2875 17.5635C22.0639 17.5635 22.0001 17.3081 22.0001 16.4138V15.264H19.2221H16.444V16.4138C16.444 17.3081 16.3802 17.5635 16.1566 17.5635C15.9359 17.5635 15.8692 17.8084 15.8692 18.6174C15.8692 19.1971 15.7951 19.6714 15.7047 19.6714C15.346 19.6714 13.7228 21.2959 13.3487 22.0293L12.9517 22.8077L12.4934 22.0538C10.9086 19.4479 10.5246 15.9857 11.496 13.0604C12.7051 9.41896 15.8499 6.51856 19.5095 5.66967C23.1612 4.8227 27.0756 5.95979 29.764 8.64864C33.5418 12.4271 34.1072 18.0184 31.1708 22.5622C30.4409 23.6918 30.4133 23.784 30.7348 24.0193C30.9237 24.1573 31.1498 24.2703 31.2373 24.2703C31.5025 24.2703 32.8819 22.0013 33.3061 20.8675C33.9669 19.1009 34.1213 17.9962 34.0202 15.7584C33.9529 14.272 33.801 13.2919 33.5136 12.4901L33.1032 11.3448L33.8895 12.1069C35.8158 13.9731 37.655 17.4959 38.2892 20.5337C38.6609 22.3133 38.5758 25.6283 38.1133 27.393C37.3677 30.2382 35.5866 33.1089 33.6131 34.6467L32.726 35.3379L33.0891 35.7863L33.4521 36.2347L34.5133 35.3279C36.4938 33.6357 37.9551 31.4088 38.878 28.6776C39.4106 27.1006 39.505 26.5221 39.5836 24.3506C39.7254 20.4346 38.964 17.4884 36.9897 14.3138C35.9692 12.6731 33.8843 10.401 32.4604 9.37853C31.9234 8.99279 31.0097 8.23818 30.4301 7.70183C27.9582 5.41404 25.7247 4.50058 22.3833 4.41051C20.9387 4.37142 19.8172 4.44328 19.1263 4.61919ZM20.8972 7.50216C20.554 7.65124 20.0982 8.06994 19.8842 8.43268C19.4903 9.10048 18.8067 9.36588 17.5936 9.322C17.3301 9.31242 16.7389 9.29 16.2794 9.27199C15.5594 9.24382 15.368 9.32468 14.8904 9.85931C14.4783 10.3209 14.3365 10.6726 14.3365 11.2344C14.3365 11.7227 14.1681 12.2375 13.8602 12.6913C12.9067 14.0967 12.8655 15.1491 13.7278 16.0784C14.3145 16.711 14.4492 16.7278 14.7293 16.2041C14.9055 15.8749 14.8722 15.7262 14.5446 15.3773C14.3248 15.1433 14.1449 14.8463 14.1449 14.7171C14.1449 14.2548 14.9251 12.9644 15.388 12.661C15.8401 12.3646 15.8474 12.3286 15.5646 11.7813C15.2979 11.2656 15.2987 11.1662 15.5738 10.7463C15.9192 10.219 16.6534 10.1289 17.0188 10.5693C17.3416 10.9583 17.7158 10.9309 18.4733 10.4625C19.2008 10.0128 19.6702 10.1473 20.2009 10.9577C20.3707 11.2166 20.5759 11.3871 20.6571 11.3369C20.9087 11.1815 21.0163 10.2083 20.8222 9.84551C20.5768 9.38696 20.7822 8.79887 21.2811 8.53194C21.6032 8.35948 21.8189 8.38726 22.341 8.66838C22.9631 9.00352 23.0252 9.00486 23.5676 8.69348C24.6782 8.05595 25.4488 8.41313 25.4488 9.56536C25.4488 9.96585 25.5216 10.0132 26.0239 9.93941C26.3713 9.88844 26.7976 9.98521 27.1005 10.1835C27.5446 10.4746 27.5896 10.6028 27.4954 11.3072C27.4369 11.7445 27.3302 12.2977 27.258 12.5365C27.1503 12.8931 27.3019 13.1294 28.1079 13.8608C28.967 14.6401 29.089 14.8434 29.089 15.4948C29.089 16.1101 28.9426 16.395 28.2422 17.144C27.5703 17.8624 27.4339 18.1179 27.5812 18.3814C27.8579 18.8759 28.1851 18.7897 28.9867 18.0111C30.6823 16.3641 30.6493 14.2904 28.907 13.0019C28.4221 12.6434 28.3518 12.5016 28.5116 12.2031C28.6185 12.0034 28.7058 11.496 28.7058 11.0755C28.7058 10.1575 28.0399 9.26241 27.1049 8.92438C26.7616 8.80021 26.3383 8.4505 26.1642 8.14716C25.6626 7.27279 24.4866 6.97041 23.5302 7.46958C23.1378 7.67443 22.9424 7.67577 22.4764 7.47706C21.7557 7.16969 21.6582 7.17123 20.8972 7.50216ZM20.8506 16.9886V17.5635H19.2221H17.5936V16.9886V16.4138H19.2221H20.8506V16.9886ZM21.4254 19.1923V19.6714H19.2221H17.0188V19.1923V18.7132H19.2221H21.4254V19.1923ZM18.0185 26.6861C16.2995 27.5628 15.9539 29.7076 17.3125 31.0666C19.3713 33.1258 22.669 31.0911 21.8271 28.281C21.383 26.7982 19.4148 25.974 18.0185 26.6861ZM20.3802 27.9983C21.3986 29.0166 20.6854 30.7855 19.2569 30.7855C18.3852 30.7855 17.5936 30.0104 17.5936 29.1567C17.5936 27.745 19.3834 27.0011 20.3802 27.9983ZM25.1875 29.1828L24.6824 29.6881V33.4517C24.6824 37.6469 24.7407 37.8709 25.9668 38.3833C26.9382 38.7892 28.1583 38.3661 28.6263 37.4607C28.9928 36.7521 28.9854 33.0091 28.6137 31.0419C28.2671 29.2079 27.7969 28.6776 26.5181 28.6776C25.8816 28.6776 25.577 28.7934 25.1875 29.1828ZM27.49 30.9026C27.6117 31.4178 27.7193 32.9757 27.7295 34.3648C27.7444 36.4223 27.6921 36.9458 27.4469 37.1913C27.0367 37.6013 26.4838 37.5693 26.0236 37.109C25.6705 36.7559 25.6404 36.4704 25.6404 33.4791C25.6404 30.3906 25.6601 30.2185 26.0456 29.9485C26.7169 29.4782 27.2346 29.8203 27.49 30.9026ZM17.5936 33.6598V34.2347H19.2221H20.8506V33.6598V33.085H19.2221H17.5936V33.6598ZM16.444 35.755C16.444 36.283 16.5036 36.3426 17.0314 36.3426C17.5595 36.3426 17.6129 36.2891 17.5583 35.8156C17.5108 35.4017 17.3847 35.2756 16.9709 35.2281C16.4975 35.1735 16.444 35.2269 16.444 35.755ZM18.5515 35.7677C18.5515 36.2787 18.6153 36.3426 19.1263 36.3426C19.6373 36.3426 19.7011 36.2787 19.7011 35.7677C19.7011 35.2566 19.6373 35.1928 19.1263 35.1928C18.6153 35.1928 18.5515 35.2566 18.5515 35.7677ZM20.8506 35.755C20.8506 36.283 20.9102 36.3426 21.438 36.3426C21.966 36.3426 22.0195 36.2891 21.9649 35.8156C21.9174 35.4017 21.7913 35.2756 21.3775 35.2281C20.9041 35.1735 20.8506 35.2269 20.8506 35.755Z" stroke="#2E6FA9" stroke-width="0.4" mask="url(#path-1-outside-1_1_3964)"/>
</svg>
